<?xml version="1.0" encoding="utf-8" standalone="no"?>
<!DOCTYPE svg PUBLIC "-//W3C//DTD SVG 1.1//EN"
  "http://www.w3.org/Graphics/SVG/1.1/DTD/svg11.dtd">
<svg xmlns:xlink="http://www.w3.org/1999/xlink" width="460.8pt" height="345.6pt" viewBox="0 0 460.8 345.6" xmlns="http://www.w3.org/2000/svg" version="1.1">
 <metadata>
  <rdf:RDF xmlns:dc="http://purl.org/dc/elements/1.1/" xmlns:cc="http://creativecommons.org/ns#" xmlns:rdf="http://www.w3.org/1999/02/22-rdf-syntax-ns#">
   <cc:Work>
    <dc:type rdf:resource="http://purl.org/dc/dcmitype/StillImage"/>
    <dc:date>2024-04-09T14:06:30.347244</dc:date>
    <dc:format>image/svg+xml</dc:format>
    <dc:creator>
     <cc:Agent>
      <dc:title>Matplotlib v3.5.2, https://matplotlib.org/</dc:title>
     </cc:Agent>
    </dc:creator>
   </cc:Work>
  </rdf:RDF>
 </metadata>
 <defs>
  <style type="text/css">*{stroke-linejoin: round; stroke-linecap: butt}</style>
 </defs>
 <g id="figure_1">
  <g id="patch_1">
   <path d="M 0 345.6 
L 460.8 345.6 
L 460.8 0 
L 0 0 
z
" style="fill: #ffffff"/>
  </g>
  <g id="axes_1">
   <g id="patch_2">
    <path d="M 57.6 307.584 
L 414.72 307.584 
L 414.72 41.472 
L 57.6 41.472 
z
" style="fill: #ffffff"/>
   </g>
   <g id="PolyCollection_1">
    <path d="M 89.334597 307.584 
L 89.334597 231.526348 
L 98.149763 202.026753 
L 102.557346 240.376227 
L 107.015301 171.501085 
L 111.44807 143.540599 
L 115.931212 157.649101 
L 120.338795 145.336227 
L 124.771564 106.730235 
L 129.204333 102.112907 
L 133.611916 94.032583 
L 137.994313 83.0023 
L 142.427082 98.77817 
L 146.859851 92.493474 
L 151.317806 95.315174 
L 155.725389 80.821895 
L 160.158158 89.543514 
L 164.616114 93.776065 
L 168.99851 97.495579 
L 173.380907 131.740761 
L 177.838863 224.08732 
L 182.296818 120.45396 
L 186.729587 128.406024 
L 191.162356 146.105781 
L 195.569939 128.790802 
L 199.952336 129.432097 
L 204.385105 134.562462 
L 208.792688 125.456065 
L 213.250643 150.466591 
L 217.683412 135.588534 
L 222.090995 124.045215 
L 226.523764 129.816874 
L 230.956534 134.562462 
L 235.364116 124.814769 
L 239.796886 101.471611 
L 244.229655 134.305943 
L 248.637238 106.473717 
L 253.044821 109.167158 
L 257.502776 75.948049 
L 261.960731 60.172178 
L 266.3935 98.393393 
L 270.826269 64.532988 
L 275.259039 91.852178 
L 279.74218 117.247482 
L 284.124577 92.108696 
L 288.607718 72.228534 
L 293.015301 94.160842 
L 297.397698 99.291206 
L 301.780095 71.843757 
L 306.23805 95.186915 
L 310.670819 54.144 
L 315.103588 84.797927 
L 319.536357 63.506915 
L 323.94394 90.056551 
L 328.37671 75.435012 
L 332.859851 86.850073 
L 337.267434 103.267239 
L 341.700203 103.395498 
L 346.0826 99.291206 
L 350.515369 106.088939 
L 354.922952 96.212988 
L 359.355721 86.593555 
L 363.78849 107.884567 
L 368.196073 235.758899 
L 372.628842 86.208777 
L 377.011239 121.223514 
L 381.469194 118.786591 
L 385.92715 134.049425 
L 390.359919 170.090235 
L 394.792688 201.513717 
L 399.225457 221.906915 
L 399.225457 307.584 
L 399.225457 307.584 
L 394.792688 307.584 
L 390.359919 307.584 
L 385.92715 307.584 
L 381.469194 307.584 
L 377.011239 307.584 
L 372.628842 307.584 
L 368.196073 307.584 
L 363.78849 307.584 
L 359.355721 307.584 
L 354.922952 307.584 
L 350.515369 307.584 
L 346.0826 307.584 
L 341.700203 307.584 
L 337.267434 307.584 
L 332.859851 307.584 
L 328.37671 307.584 
L 323.94394 307.584 
L 319.536357 307.584 
L 315.103588 307.584 
L 310.670819 307.584 
L 306.23805 307.584 
L 301.780095 307.584 
L 297.397698 307.584 
L 293.015301 307.584 
L 288.607718 307.584 
L 284.124577 307.584 
L 279.74218 307.584 
L 275.259039 307.584 
L 270.826269 307.584 
L 266.3935 307.584 
L 261.960731 307.584 
L 257.502776 307.584 
L 253.044821 307.584 
L 248.637238 307.584 
L 244.229655 307.584 
L 239.796886 307.584 
L 235.364116 307.584 
L 230.956534 307.584 
L 226.523764 307.584 
L 222.090995 307.584 
L 217.683412 307.584 
L 213.250643 307.584 
L 208.792688 307.584 
L 204.385105 307.584 
L 199.952336 307.584 
L 195.569939 307.584 
L 191.162356 307.584 
L 186.729587 307.584 
L 182.296818 307.584 
L 177.838863 307.584 
L 173.380907 307.584 
L 168.99851 307.584 
L 164.616114 307.584 
L 160.158158 307.584 
L 155.725389 307.584 
L 151.317806 307.584 
L 146.859851 307.584 
L 142.427082 307.584 
L 137.994313 307.584 
L 133.611916 307.584 
L 129.204333 307.584 
L 124.771564 307.584 
L 120.338795 307.584 
L 115.931212 307.584 
L 111.44807 307.584 
L 107.015301 307.584 
L 102.557346 307.584 
L 98.149763 307.584 
L 89.334597 307.584 
z
" clip-path="url(#p6dbf77de40)" style="fill: #1f77b4; fill-opacity: 0.3"/>
   </g>
   <g id="matplotlib.axis_1">
    <g id="xtick_1">
     <g id="line2d_1">
      <path d="M 57.6 307.584 
L 57.6 41.472 
" clip-path="url(#p6dbf77de40)" style="fill: none; stroke: #b0b0b0; stroke-opacity: 0.3; stroke-width: 0.8; stroke-linecap: square"/>
     </g>
     <g id="line2d_2">
      <defs>
       <path id="m2efaa77075" d="M 0 0 
L 0 3.5 
" style="stroke: #000000; stroke-width: 0.8"/>
      </defs>
      <g>
       <use xlink:href="#m2efaa77075" x="57.6" y="307.584" style="stroke: #000000; stroke-width: 0.8"/>
      </g>
     </g>
     <g id="text_1">
      <!-- 0.0 -->
      <g transform="translate(49.648438 322.182437)scale(0.1 -0.1)">
       <defs>
        <path id="DejaVuSans-30" d="M 2034 4250 
Q 1547 4250 1301 3770 
Q 1056 3291 1056 2328 
Q 1056 1369 1301 889 
Q 1547 409 2034 409 
Q 2525 409 2770 889 
Q 3016 1369 3016 2328 
Q 3016 3291 2770 3770 
Q 2525 4250 2034 4250 
z
M 2034 4750 
Q 2819 4750 3233 4129 
Q 3647 3509 3647 2328 
Q 3647 1150 3233 529 
Q 2819 -91 2034 -91 
Q 1250 -91 836 529 
Q 422 1150 422 2328 
Q 422 3509 836 4129 
Q 1250 4750 2034 4750 
z
" transform="scale(0.015625)"/>
        <path id="DejaVuSans-2e" d="M 684 794 
L 1344 794 
L 1344 0 
L 684 0 
L 684 794 
z
" transform="scale(0.015625)"/>
       </defs>
       <use xlink:href="#DejaVuSans-30"/>
       <use xlink:href="#DejaVuSans-2e" x="63.623047"/>
       <use xlink:href="#DejaVuSans-30" x="95.410156"/>
      </g>
     </g>
    </g>
    <g id="xtick_2">
     <g id="line2d_3">
      <path d="M 102.935139 307.584 
L 102.935139 41.472 
" clip-path="url(#p6dbf77de40)" style="fill: none; stroke: #b0b0b0; stroke-opacity: 0.3; stroke-width: 0.8; stroke-linecap: square"/>
     </g>
     <g id="line2d_4">
      <g>
       <use xlink:href="#m2efaa77075" x="102.935139" y="307.584" style="stroke: #000000; stroke-width: 0.8"/>
      </g>
     </g>
     <g id="text_2">
      <!-- 0.5 -->
      <g transform="translate(94.983576 322.182437)scale(0.1 -0.1)">
       <defs>
        <path id="DejaVuSans-35" d="M 691 4666 
L 3169 4666 
L 3169 4134 
L 1269 4134 
L 1269 2991 
Q 1406 3038 1543 3061 
Q 1681 3084 1819 3084 
Q 2600 3084 3056 2656 
Q 3513 2228 3513 1497 
Q 3513 744 3044 326 
Q 2575 -91 1722 -91 
Q 1428 -91 1123 -41 
Q 819 9 494 109 
L 494 744 
Q 775 591 1075 516 
Q 1375 441 1709 441 
Q 2250 441 2565 725 
Q 2881 1009 2881 1497 
Q 2881 1984 2565 2268 
Q 2250 2553 1709 2553 
Q 1456 2553 1204 2497 
Q 953 2441 691 2322 
L 691 4666 
z
" transform="scale(0.015625)"/>
       </defs>
       <use xlink:href="#DejaVuSans-30"/>
       <use xlink:href="#DejaVuSans-2e" x="63.623047"/>
       <use xlink:href="#DejaVuSans-35" x="95.410156"/>
      </g>
     </g>
    </g>
    <g id="xtick_3">
     <g id="line2d_5">
      <path d="M 148.270278 307.584 
L 148.270278 41.472 
" clip-path="url(#p6dbf77de40)" style="fill: none; stroke: #b0b0b0; stroke-opacity: 0.3; stroke-width: 0.8; stroke-linecap: square"/>
     </g>
     <g id="line2d_6">
      <g>
       <use xlink:href="#m2efaa77075" x="148.270278" y="307.584" style="stroke: #000000; stroke-width: 0.8"/>
      </g>
     </g>
     <g id="text_3">
      <!-- 1.0 -->
      <g transform="translate(140.318715 322.182437)scale(0.1 -0.1)">
       <defs>
        <path id="DejaVuSans-31" d="M 794 531 
L 1825 531 
L 1825 4091 
L 703 3866 
L 703 4441 
L 1819 4666 
L 2450 4666 
L 2450 531 
L 3481 531 
L 3481 0 
L 794 0 
L 794 531 
z
" transform="scale(0.015625)"/>
       </defs>
       <use xlink:href="#DejaVuSans-31"/>
       <use xlink:href="#DejaVuSans-2e" x="63.623047"/>
       <use xlink:href="#DejaVuSans-30" x="95.410156"/>
      </g>
     </g>
    </g>
    <g id="xtick_4">
     <g id="line2d_7">
      <path d="M 193.605416 307.584 
L 193.605416 41.472 
" clip-path="url(#p6dbf77de40)" style="fill: none; stroke: #b0b0b0; stroke-opacity: 0.3; stroke-width: 0.8; stroke-linecap: square"/>
     </g>
     <g id="line2d_8">
      <g>
       <use xlink:href="#m2efaa77075" x="193.605416" y="307.584" style="stroke: #000000; stroke-width: 0.8"/>
      </g>
     </g>
     <g id="text_4">
      <!-- 1.5 -->
      <g transform="translate(185.653854 322.182437)scale(0.1 -0.1)">
       <use xlink:href="#DejaVuSans-31"/>
       <use xlink:href="#DejaVuSans-2e" x="63.623047"/>
       <use xlink:href="#DejaVuSans-35" x="95.410156"/>
      </g>
     </g>
    </g>
    <g id="xtick_5">
     <g id="line2d_9">
      <path d="M 238.940555 307.584 
L 238.940555 41.472 
" clip-path="url(#p6dbf77de40)" style="fill: none; stroke: #b0b0b0; stroke-opacity: 0.3; stroke-width: 0.8; stroke-linecap: square"/>
     </g>
     <g id="line2d_10">
      <g>
       <use xlink:href="#m2efaa77075" x="238.940555" y="307.584" style="stroke: #000000; stroke-width: 0.8"/>
      </g>
     </g>
     <g id="text_5">
      <!-- 2.0 -->
      <g transform="translate(230.988993 322.182437)scale(0.1 -0.1)">
       <defs>
        <path id="DejaVuSans-32" d="M 1228 531 
L 3431 531 
L 3431 0 
L 469 0 
L 469 531 
Q 828 903 1448 1529 
Q 2069 2156 2228 2338 
Q 2531 2678 2651 2914 
Q 2772 3150 2772 3378 
Q 2772 3750 2511 3984 
Q 2250 4219 1831 4219 
Q 1534 4219 1204 4116 
Q 875 4013 500 3803 
L 500 4441 
Q 881 4594 1212 4672 
Q 1544 4750 1819 4750 
Q 2544 4750 2975 4387 
Q 3406 4025 3406 3419 
Q 3406 3131 3298 2873 
Q 3191 2616 2906 2266 
Q 2828 2175 2409 1742 
Q 1991 1309 1228 531 
z
" transform="scale(0.015625)"/>
       </defs>
       <use xlink:href="#DejaVuSans-32"/>
       <use xlink:href="#DejaVuSans-2e" x="63.623047"/>
       <use xlink:href="#DejaVuSans-30" x="95.410156"/>
      </g>
     </g>
    </g>
    <g id="xtick_6">
     <g id="line2d_11">
      <path d="M 284.275694 307.584 
L 284.275694 41.472 
" clip-path="url(#p6dbf77de40)" style="fill: none; stroke: #b0b0b0; stroke-opacity: 0.3; stroke-width: 0.8; stroke-linecap: square"/>
     </g>
     <g id="line2d_12">
      <g>
       <use xlink:href="#m2efaa77075" x="284.275694" y="307.584" style="stroke: #000000; stroke-width: 0.8"/>
      </g>
     </g>
     <g id="text_6">
      <!-- 2.5 -->
      <g transform="translate(276.324131 322.182437)scale(0.1 -0.1)">
       <use xlink:href="#DejaVuSans-32"/>
       <use xlink:href="#DejaVuSans-2e" x="63.623047"/>
       <use xlink:href="#DejaVuSans-35" x="95.410156"/>
      </g>
     </g>
    </g>
    <g id="xtick_7">
     <g id="line2d_13">
      <path d="M 329.610833 307.584 
L 329.610833 41.472 
" clip-path="url(#p6dbf77de40)" style="fill: none; stroke: #b0b0b0; stroke-opacity: 0.3; stroke-width: 0.8; stroke-linecap: square"/>
     </g>
     <g id="line2d_14">
      <g>
       <use xlink:href="#m2efaa77075" x="329.610833" y="307.584" style="stroke: #000000; stroke-width: 0.8"/>
      </g>
     </g>
     <g id="text_7">
      <!-- 3.0 -->
      <g transform="translate(321.65927 322.182437)scale(0.1 -0.1)">
       <defs>
        <path id="DejaVuSans-33" d="M 2597 2516 
Q 3050 2419 3304 2112 
Q 3559 1806 3559 1356 
Q 3559 666 3084 287 
Q 2609 -91 1734 -91 
Q 1441 -91 1130 -33 
Q 819 25 488 141 
L 488 750 
Q 750 597 1062 519 
Q 1375 441 1716 441 
Q 2309 441 2620 675 
Q 2931 909 2931 1356 
Q 2931 1769 2642 2001 
Q 2353 2234 1838 2234 
L 1294 2234 
L 1294 2753 
L 1863 2753 
Q 2328 2753 2575 2939 
Q 2822 3125 2822 3475 
Q 2822 3834 2567 4026 
Q 2313 4219 1838 4219 
Q 1578 4219 1281 4162 
Q 984 4106 628 3988 
L 628 4550 
Q 988 4650 1302 4700 
Q 1616 4750 1894 4750 
Q 2613 4750 3031 4423 
Q 3450 4097 3450 3541 
Q 3450 3153 3228 2886 
Q 3006 2619 2597 2516 
z
" transform="scale(0.015625)"/>
       </defs>
       <use xlink:href="#DejaVuSans-33"/>
       <use xlink:href="#DejaVuSans-2e" x="63.623047"/>
       <use xlink:href="#DejaVuSans-30" x="95.410156"/>
      </g>
     </g>
    </g>
    <g id="xtick_8">
     <g id="line2d_15">
      <path d="M 374.945972 307.584 
L 374.945972 41.472 
" clip-path="url(#p6dbf77de40)" style="fill: none; stroke: #b0b0b0; stroke-opacity: 0.3; stroke-width: 0.8; stroke-linecap: square"/>
     </g>
     <g id="line2d_16">
      <g>
       <use xlink:href="#m2efaa77075" x="374.945972" y="307.584" style="stroke: #000000; stroke-width: 0.8"/>
      </g>
     </g>
     <g id="text_8">
      <!-- 3.5 -->
      <g transform="translate(366.994409 322.182437)scale(0.1 -0.1)">
       <use xlink:href="#DejaVuSans-33"/>
       <use xlink:href="#DejaVuSans-2e" x="63.623047"/>
       <use xlink:href="#DejaVuSans-35" x="95.410156"/>
      </g>
     </g>
    </g>
    <g id="text_9">
     <!-- Time (h) -->
     <g transform="translate(215.267031 335.860562)scale(0.1 -0.1)">
      <defs>
       <path id="DejaVuSans-54" d="M -19 4666 
L 3928 4666 
L 3928 4134 
L 2272 4134 
L 2272 0 
L 1638 0 
L 1638 4134 
L -19 4134 
L -19 4666 
z
" transform="scale(0.015625)"/>
       <path id="DejaVuSans-69" d="M 603 3500 
L 1178 3500 
L 1178 0 
L 603 0 
L 603 3500 
z
M 603 4863 
L 1178 4863 
L 1178 4134 
L 603 4134 
L 603 4863 
z
" transform="scale(0.015625)"/>
       <path id="DejaVuSans-6d" d="M 3328 2828 
Q 3544 3216 3844 3400 
Q 4144 3584 4550 3584 
Q 5097 3584 5394 3201 
Q 5691 2819 5691 2113 
L 5691 0 
L 5113 0 
L 5113 2094 
Q 5113 2597 4934 2840 
Q 4756 3084 4391 3084 
Q 3944 3084 3684 2787 
Q 3425 2491 3425 1978 
L 3425 0 
L 2847 0 
L 2847 2094 
Q 2847 2600 2669 2842 
Q 2491 3084 2119 3084 
Q 1678 3084 1418 2786 
Q 1159 2488 1159 1978 
L 1159 0 
L 581 0 
L 581 3500 
L 1159 3500 
L 1159 2956 
Q 1356 3278 1631 3431 
Q 1906 3584 2284 3584 
Q 2666 3584 2933 3390 
Q 3200 3197 3328 2828 
z
" transform="scale(0.015625)"/>
       <path id="DejaVuSans-65" d="M 3597 1894 
L 3597 1613 
L 953 1613 
Q 991 1019 1311 708 
Q 1631 397 2203 397 
Q 2534 397 2845 478 
Q 3156 559 3463 722 
L 3463 178 
Q 3153 47 2828 -22 
Q 2503 -91 2169 -91 
Q 1331 -91 842 396 
Q 353 884 353 1716 
Q 353 2575 817 3079 
Q 1281 3584 2069 3584 
Q 2775 3584 3186 3129 
Q 3597 2675 3597 1894 
z
M 3022 2063 
Q 3016 2534 2758 2815 
Q 2500 3097 2075 3097 
Q 1594 3097 1305 2825 
Q 1016 2553 972 2059 
L 3022 2063 
z
" transform="scale(0.015625)"/>
       <path id="DejaVuSans-20" transform="scale(0.015625)"/>
       <path id="DejaVuSans-28" d="M 1984 4856 
Q 1566 4138 1362 3434 
Q 1159 2731 1159 2009 
Q 1159 1288 1364 580 
Q 1569 -128 1984 -844 
L 1484 -844 
Q 1016 -109 783 600 
Q 550 1309 550 2009 
Q 550 2706 781 3412 
Q 1013 4119 1484 4856 
L 1984 4856 
z
" transform="scale(0.015625)"/>
       <path id="DejaVuSans-68" d="M 3513 2113 
L 3513 0 
L 2938 0 
L 2938 2094 
Q 2938 2591 2744 2837 
Q 2550 3084 2163 3084 
Q 1697 3084 1428 2787 
Q 1159 2491 1159 1978 
L 1159 0 
L 581 0 
L 581 4863 
L 1159 4863 
L 1159 2956 
Q 1366 3272 1645 3428 
Q 1925 3584 2291 3584 
Q 2894 3584 3203 3211 
Q 3513 2838 3513 2113 
z
" transform="scale(0.015625)"/>
       <path id="DejaVuSans-29" d="M 513 4856 
L 1013 4856 
Q 1481 4119 1714 3412 
Q 1947 2706 1947 2009 
Q 1947 1309 1714 600 
Q 1481 -109 1013 -844 
L 513 -844 
Q 928 -128 1133 580 
Q 1338 1288 1338 2009 
Q 1338 2731 1133 3434 
Q 928 4138 513 4856 
z
" transform="scale(0.015625)"/>
      </defs>
      <use xlink:href="#DejaVuSans-54"/>
      <use xlink:href="#DejaVuSans-69" x="57.958984"/>
      <use xlink:href="#DejaVuSans-6d" x="85.742188"/>
      <use xlink:href="#DejaVuSans-65" x="183.154297"/>
      <use xlink:href="#DejaVuSans-20" x="244.677734"/>
      <use xlink:href="#DejaVuSans-28" x="276.464844"/>
      <use xlink:href="#DejaVuSans-68" x="315.478516"/>
      <use xlink:href="#DejaVuSans-29" x="378.857422"/>
     </g>
    </g>
   </g>
   <g id="matplotlib.axis_2">
    <g id="ytick_1">
     <g id="line2d_17">
      <path d="M 57.6 307.584 
L 414.72 307.584 
" clip-path="url(#p6dbf77de40)" style="fill: none; stroke: #b0b0b0; stroke-opacity: 0.3; stroke-width: 0.8; stroke-linecap: square"/>
     </g>
     <g id="line2d_18">
      <defs>
       <path id="m60b035a124" d="M 0 0 
L -3.5 0 
" style="stroke: #000000; stroke-width: 0.8"/>
      </defs>
      <g>
       <use xlink:href="#m60b035a124" x="57.6" y="307.584" style="stroke: #000000; stroke-width: 0.8"/>
      </g>
     </g>
     <g id="text_10">
      <!-- 0.00 -->
      <g transform="translate(28.334375 311.383219)scale(0.1 -0.1)">
       <use xlink:href="#DejaVuSans-30"/>
       <use xlink:href="#DejaVuSans-2e" x="63.623047"/>
       <use xlink:href="#DejaVuSans-30" x="95.410156"/>
       <use xlink:href="#DejaVuSans-30" x="159.033203"/>
      </g>
     </g>
    </g>
    <g id="ytick_2">
     <g id="line2d_19">
      <path d="M 57.6 275.519223 
L 414.72 275.519223 
" clip-path="url(#p6dbf77de40)" style="fill: none; stroke: #b0b0b0; stroke-opacity: 0.3; stroke-width: 0.8; stroke-linecap: square"/>
     </g>
     <g id="line2d_20">
      <g>
       <use xlink:href="#m60b035a124" x="57.6" y="275.519223" style="stroke: #000000; stroke-width: 0.8"/>
      </g>
     </g>
     <g id="text_11">
      <!-- 0.25 -->
      <g transform="translate(28.334375 279.318441)scale(0.1 -0.1)">
       <use xlink:href="#DejaVuSans-30"/>
       <use xlink:href="#DejaVuSans-2e" x="63.623047"/>
       <use xlink:href="#DejaVuSans-32" x="95.410156"/>
       <use xlink:href="#DejaVuSans-35" x="159.033203"/>
      </g>
     </g>
    </g>
    <g id="ytick_3">
     <g id="line2d_21">
      <path d="M 57.6 243.454445 
L 414.72 243.454445 
" clip-path="url(#p6dbf77de40)" style="fill: none; stroke: #b0b0b0; stroke-opacity: 0.3; stroke-width: 0.8; stroke-linecap: square"/>
     </g>
     <g id="line2d_22">
      <g>
       <use xlink:href="#m60b035a124" x="57.6" y="243.454445" style="stroke: #000000; stroke-width: 0.8"/>
      </g>
     </g>
     <g id="text_12">
      <!-- 0.50 -->
      <g transform="translate(28.334375 247.253664)scale(0.1 -0.1)">
       <use xlink:href="#DejaVuSans-30"/>
       <use xlink:href="#DejaVuSans-2e" x="63.623047"/>
       <use xlink:href="#DejaVuSans-35" x="95.410156"/>
       <use xlink:href="#DejaVuSans-30" x="159.033203"/>
      </g>
     </g>
    </g>
    <g id="ytick_4">
     <g id="line2d_23">
      <path d="M 57.6 211.389668 
L 414.72 211.389668 
" clip-path="url(#p6dbf77de40)" style="fill: none; stroke: #b0b0b0; stroke-opacity: 0.3; stroke-width: 0.8; stroke-linecap: square"/>
     </g>
     <g id="line2d_24">
      <g>
       <use xlink:href="#m60b035a124" x="57.6" y="211.389668" style="stroke: #000000; stroke-width: 0.8"/>
      </g>
     </g>
     <g id="text_13">
      <!-- 0.75 -->
      <g transform="translate(28.334375 215.188887)scale(0.1 -0.1)">
       <defs>
        <path id="DejaVuSans-37" d="M 525 4666 
L 3525 4666 
L 3525 4397 
L 1831 0 
L 1172 0 
L 2766 4134 
L 525 4134 
L 525 4666 
z
" transform="scale(0.015625)"/>
       </defs>
       <use xlink:href="#DejaVuSans-30"/>
       <use xlink:href="#DejaVuSans-2e" x="63.623047"/>
       <use xlink:href="#DejaVuSans-37" x="95.410156"/>
       <use xlink:href="#DejaVuSans-35" x="159.033203"/>
      </g>
     </g>
    </g>
    <g id="ytick_5">
     <g id="line2d_25">
      <path d="M 57.6 179.324891 
L 414.72 179.324891 
" clip-path="url(#p6dbf77de40)" style="fill: none; stroke: #b0b0b0; stroke-opacity: 0.3; stroke-width: 0.8; stroke-linecap: square"/>
     </g>
     <g id="line2d_26">
      <g>
       <use xlink:href="#m60b035a124" x="57.6" y="179.324891" style="stroke: #000000; stroke-width: 0.8"/>
      </g>
     </g>
     <g id="text_14">
      <!-- 1.00 -->
      <g transform="translate(28.334375 183.124109)scale(0.1 -0.1)">
       <use xlink:href="#DejaVuSans-31"/>
       <use xlink:href="#DejaVuSans-2e" x="63.623047"/>
       <use xlink:href="#DejaVuSans-30" x="95.410156"/>
       <use xlink:href="#DejaVuSans-30" x="159.033203"/>
      </g>
     </g>
    </g>
    <g id="ytick_6">
     <g id="line2d_27">
      <path d="M 57.6 147.260113 
L 414.72 147.260113 
" clip-path="url(#p6dbf77de40)" style="fill: none; stroke: #b0b0b0; stroke-opacity: 0.3; stroke-width: 0.8; stroke-linecap: square"/>
     </g>
     <g id="line2d_28">
      <g>
       <use xlink:href="#m60b035a124" x="57.6" y="147.260113" style="stroke: #000000; stroke-width: 0.8"/>
      </g>
     </g>
     <g id="text_15">
      <!-- 1.25 -->
      <g transform="translate(28.334375 151.059332)scale(0.1 -0.1)">
       <use xlink:href="#DejaVuSans-31"/>
       <use xlink:href="#DejaVuSans-2e" x="63.623047"/>
       <use xlink:href="#DejaVuSans-32" x="95.410156"/>
       <use xlink:href="#DejaVuSans-35" x="159.033203"/>
      </g>
     </g>
    </g>
    <g id="ytick_7">
     <g id="line2d_29">
      <path d="M 57.6 115.195336 
L 414.72 115.195336 
" clip-path="url(#p6dbf77de40)" style="fill: none; stroke: #b0b0b0; stroke-opacity: 0.3; stroke-width: 0.8; stroke-linecap: square"/>
     </g>
     <g id="line2d_30">
      <g>
       <use xlink:href="#m60b035a124" x="57.6" y="115.195336" style="stroke: #000000; stroke-width: 0.8"/>
      </g>
     </g>
     <g id="text_16">
      <!-- 1.50 -->
      <g transform="translate(28.334375 118.994555)scale(0.1 -0.1)">
       <use xlink:href="#DejaVuSans-31"/>
       <use xlink:href="#DejaVuSans-2e" x="63.623047"/>
       <use xlink:href="#DejaVuSans-35" x="95.410156"/>
       <use xlink:href="#DejaVuSans-30" x="159.033203"/>
      </g>
     </g>
    </g>
    <g id="ytick_8">
     <g id="line2d_31">
      <path d="M 57.6 83.130559 
L 414.72 83.130559 
" clip-path="url(#p6dbf77de40)" style="fill: none; stroke: #b0b0b0; stroke-opacity: 0.3; stroke-width: 0.8; stroke-linecap: square"/>
     </g>
     <g id="line2d_32">
      <g>
       <use xlink:href="#m60b035a124" x="57.6" y="83.130559" style="stroke: #000000; stroke-width: 0.8"/>
      </g>
     </g>
     <g id="text_17">
      <!-- 1.75 -->
      <g transform="translate(28.334375 86.929777)scale(0.1 -0.1)">
       <use xlink:href="#DejaVuSans-31"/>
       <use xlink:href="#DejaVuSans-2e" x="63.623047"/>
       <use xlink:href="#DejaVuSans-37" x="95.410156"/>
       <use xlink:href="#DejaVuSans-35" x="159.033203"/>
      </g>
     </g>
    </g>
    <g id="ytick_9">
     <g id="line2d_33">
      <path d="M 57.6 51.065781 
L 414.72 51.065781 
" clip-path="url(#p6dbf77de40)" style="fill: none; stroke: #b0b0b0; stroke-opacity: 0.3; stroke-width: 0.8; stroke-linecap: square"/>
     </g>
     <g id="line2d_34">
      <g>
       <use xlink:href="#m60b035a124" x="57.6" y="51.065781" style="stroke: #000000; stroke-width: 0.8"/>
      </g>
     </g>
     <g id="text_18">
      <!-- 2.00 -->
      <g transform="translate(28.334375 54.865)scale(0.1 -0.1)">
       <use xlink:href="#DejaVuSans-32"/>
       <use xlink:href="#DejaVuSans-2e" x="63.623047"/>
       <use xlink:href="#DejaVuSans-30" x="95.410156"/>
       <use xlink:href="#DejaVuSans-30" x="159.033203"/>
      </g>
     </g>
    </g>
    <g id="text_19">
     <!-- H2 concentration (25 s·µV) -->
     <g transform="translate(22.254687 241.924875)rotate(-90)scale(0.1 -0.1)">
      <defs>
       <path id="DejaVuSans-48" d="M 628 4666 
L 1259 4666 
L 1259 2753 
L 3553 2753 
L 3553 4666 
L 4184 4666 
L 4184 0 
L 3553 0 
L 3553 2222 
L 1259 2222 
L 1259 0 
L 628 0 
L 628 4666 
z
" transform="scale(0.015625)"/>
       <path id="DejaVuSans-63" d="M 3122 3366 
L 3122 2828 
Q 2878 2963 2633 3030 
Q 2388 3097 2138 3097 
Q 1578 3097 1268 2742 
Q 959 2388 959 1747 
Q 959 1106 1268 751 
Q 1578 397 2138 397 
Q 2388 397 2633 464 
Q 2878 531 3122 666 
L 3122 134 
Q 2881 22 2623 -34 
Q 2366 -91 2075 -91 
Q 1284 -91 818 406 
Q 353 903 353 1747 
Q 353 2603 823 3093 
Q 1294 3584 2113 3584 
Q 2378 3584 2631 3529 
Q 2884 3475 3122 3366 
z
" transform="scale(0.015625)"/>
       <path id="DejaVuSans-6f" d="M 1959 3097 
Q 1497 3097 1228 2736 
Q 959 2375 959 1747 
Q 959 1119 1226 758 
Q 1494 397 1959 397 
Q 2419 397 2687 759 
Q 2956 1122 2956 1747 
Q 2956 2369 2687 2733 
Q 2419 3097 1959 3097 
z
M 1959 3584 
Q 2709 3584 3137 3096 
Q 3566 2609 3566 1747 
Q 3566 888 3137 398 
Q 2709 -91 1959 -91 
Q 1206 -91 779 398 
Q 353 888 353 1747 
Q 353 2609 779 3096 
Q 1206 3584 1959 3584 
z
" transform="scale(0.015625)"/>
       <path id="DejaVuSans-6e" d="M 3513 2113 
L 3513 0 
L 2938 0 
L 2938 2094 
Q 2938 2591 2744 2837 
Q 2550 3084 2163 3084 
Q 1697 3084 1428 2787 
Q 1159 2491 1159 1978 
L 1159 0 
L 581 0 
L 581 3500 
L 1159 3500 
L 1159 2956 
Q 1366 3272 1645 3428 
Q 1925 3584 2291 3584 
Q 2894 3584 3203 3211 
Q 3513 2838 3513 2113 
z
" transform="scale(0.015625)"/>
       <path id="DejaVuSans-74" d="M 1172 4494 
L 1172 3500 
L 2356 3500 
L 2356 3053 
L 1172 3053 
L 1172 1153 
Q 1172 725 1289 603 
Q 1406 481 1766 481 
L 2356 481 
L 2356 0 
L 1766 0 
Q 1100 0 847 248 
Q 594 497 594 1153 
L 594 3053 
L 172 3053 
L 172 3500 
L 594 3500 
L 594 4494 
L 1172 4494 
z
" transform="scale(0.015625)"/>
       <path id="DejaVuSans-72" d="M 2631 2963 
Q 2534 3019 2420 3045 
Q 2306 3072 2169 3072 
Q 1681 3072 1420 2755 
Q 1159 2438 1159 1844 
L 1159 0 
L 581 0 
L 581 3500 
L 1159 3500 
L 1159 2956 
Q 1341 3275 1631 3429 
Q 1922 3584 2338 3584 
Q 2397 3584 2469 3576 
Q 2541 3569 2628 3553 
L 2631 2963 
z
" transform="scale(0.015625)"/>
       <path id="DejaVuSans-61" d="M 2194 1759 
Q 1497 1759 1228 1600 
Q 959 1441 959 1056 
Q 959 750 1161 570 
Q 1363 391 1709 391 
Q 2188 391 2477 730 
Q 2766 1069 2766 1631 
L 2766 1759 
L 2194 1759 
z
M 3341 1997 
L 3341 0 
L 2766 0 
L 2766 531 
Q 2569 213 2275 61 
Q 1981 -91 1556 -91 
Q 1019 -91 701 211 
Q 384 513 384 1019 
Q 384 1609 779 1909 
Q 1175 2209 1959 2209 
L 2766 2209 
L 2766 2266 
Q 2766 2663 2505 2880 
Q 2244 3097 1772 3097 
Q 1472 3097 1187 3025 
Q 903 2953 641 2809 
L 641 3341 
Q 956 3463 1253 3523 
Q 1550 3584 1831 3584 
Q 2591 3584 2966 3190 
Q 3341 2797 3341 1997 
z
" transform="scale(0.015625)"/>
       <path id="DejaVuSans-73" d="M 2834 3397 
L 2834 2853 
Q 2591 2978 2328 3040 
Q 2066 3103 1784 3103 
Q 1356 3103 1142 2972 
Q 928 2841 928 2578 
Q 928 2378 1081 2264 
Q 1234 2150 1697 2047 
L 1894 2003 
Q 2506 1872 2764 1633 
Q 3022 1394 3022 966 
Q 3022 478 2636 193 
Q 2250 -91 1575 -91 
Q 1294 -91 989 -36 
Q 684 19 347 128 
L 347 722 
Q 666 556 975 473 
Q 1284 391 1588 391 
Q 1994 391 2212 530 
Q 2431 669 2431 922 
Q 2431 1156 2273 1281 
Q 2116 1406 1581 1522 
L 1381 1569 
Q 847 1681 609 1914 
Q 372 2147 372 2553 
Q 372 3047 722 3315 
Q 1072 3584 1716 3584 
Q 2034 3584 2315 3537 
Q 2597 3491 2834 3397 
z
" transform="scale(0.015625)"/>
       <path id="DejaVuSans-b7" d="M 684 2619 
L 1344 2619 
L 1344 1825 
L 684 1825 
L 684 2619 
z
" transform="scale(0.015625)"/>
       <path id="DejaVuSans-b5" d="M 544 -1331 
L 544 3500 
L 1119 3500 
L 1119 1325 
Q 1119 872 1334 640 
Q 1550 409 1972 409 
Q 2434 409 2667 671 
Q 2900 934 2900 1459 
L 2900 3500 
L 3475 3500 
L 3475 806 
Q 3475 619 3529 530 
Q 3584 441 3700 441 
Q 3728 441 3778 458 
Q 3828 475 3916 513 
L 3916 50 
Q 3788 -22 3673 -56 
Q 3559 -91 3450 -91 
Q 3234 -91 3106 31 
Q 2978 153 2931 403 
Q 2775 156 2548 32 
Q 2322 -91 2016 -91 
Q 1697 -91 1473 31 
Q 1250 153 1119 397 
L 1119 -1331 
L 544 -1331 
z
" transform="scale(0.015625)"/>
       <path id="DejaVuSans-56" d="M 1831 0 
L 50 4666 
L 709 4666 
L 2188 738 
L 3669 4666 
L 4325 4666 
L 2547 0 
L 1831 0 
z
" transform="scale(0.015625)"/>
      </defs>
      <use xlink:href="#DejaVuSans-48"/>
      <use xlink:href="#DejaVuSans-32" x="75.195312"/>
      <use xlink:href="#DejaVuSans-20" x="138.818359"/>
      <use xlink:href="#DejaVuSans-63" x="170.605469"/>
      <use xlink:href="#DejaVuSans-6f" x="225.585938"/>
      <use xlink:href="#DejaVuSans-6e" x="286.767578"/>
      <use xlink:href="#DejaVuSans-63" x="350.146484"/>
      <use xlink:href="#DejaVuSans-65" x="405.126953"/>
      <use xlink:href="#DejaVuSans-6e" x="466.650391"/>
      <use xlink:href="#DejaVuSans-74" x="530.029297"/>
      <use xlink:href="#DejaVuSans-72" x="569.238281"/>
      <use xlink:href="#DejaVuSans-61" x="610.351562"/>
      <use xlink:href="#DejaVuSans-74" x="671.630859"/>
      <use xlink:href="#DejaVuSans-69" x="710.839844"/>
      <use xlink:href="#DejaVuSans-6f" x="738.623047"/>
      <use xlink:href="#DejaVuSans-6e" x="799.804688"/>
      <use xlink:href="#DejaVuSans-20" x="863.183594"/>
      <use xlink:href="#DejaVuSans-28" x="894.970703"/>
      <use xlink:href="#DejaVuSans-32" x="933.984375"/>
      <use xlink:href="#DejaVuSans-35" x="997.607422"/>
      <use xlink:href="#DejaVuSans-20" x="1061.230469"/>
      <use xlink:href="#DejaVuSans-73" x="1093.017578"/>
      <use xlink:href="#DejaVuSans-b7" x="1145.117188"/>
      <use xlink:href="#DejaVuSans-b5" x="1176.904297"/>
      <use xlink:href="#DejaVuSans-56" x="1240.527344"/>
      <use xlink:href="#DejaVuSans-29" x="1308.935547"/>
     </g>
    </g>
   </g>
   <g id="line2d_35">
    <path d="M 89.334597 231.526348 
L 98.149763 202.026753 
L 102.557346 240.376227 
L 107.015301 171.501085 
L 111.44807 143.540599 
L 115.931212 157.649101 
L 120.338795 145.336227 
L 124.771564 106.730235 
L 129.204333 102.112907 
L 133.611916 94.032583 
L 137.994313 83.0023 
L 142.427082 98.77817 
L 146.859851 92.493474 
L 151.317806 95.315174 
L 155.725389 80.821895 
L 160.158158 89.543514 
L 164.616114 93.776065 
L 168.99851 97.495579 
L 173.380907 131.740761 
L 177.838863 224.08732 
L 182.296818 120.45396 
L 186.729587 128.406024 
L 191.162356 146.105781 
L 195.569939 128.790802 
L 199.952336 129.432097 
L 204.385105 134.562462 
L 208.792688 125.456065 
L 213.250643 150.466591 
L 217.683412 135.588534 
L 222.090995 124.045215 
L 226.523764 129.816874 
L 230.956534 134.562462 
L 235.364116 124.814769 
L 239.796886 101.471611 
L 244.229655 134.305943 
L 248.637238 106.473717 
L 253.044821 109.167158 
L 257.502776 75.948049 
L 261.960731 60.172178 
L 266.3935 98.393393 
L 270.826269 64.532988 
L 275.259039 91.852178 
L 279.74218 117.247482 
L 284.124577 92.108696 
L 288.607718 72.228534 
L 293.015301 94.160842 
L 297.397698 99.291206 
L 301.780095 71.843757 
L 306.23805 95.186915 
L 310.670819 54.144 
L 315.103588 84.797927 
L 319.536357 63.506915 
L 323.94394 90.056551 
L 328.37671 75.435012 
L 332.859851 86.850073 
L 337.267434 103.267239 
L 341.700203 103.395498 
L 346.0826 99.291206 
L 350.515369 106.088939 
L 354.922952 96.212988 
L 359.355721 86.593555 
L 363.78849 107.884567 
L 368.196073 235.758899 
L 372.628842 86.208777 
L 377.011239 121.223514 
L 381.469194 118.786591 
L 385.92715 134.049425 
L 390.359919 170.090235 
L 394.792688 201.513717 
L 399.225457 221.906915 
" clip-path="url(#p6dbf77de40)" style="fill: none; stroke: #1f77b4; stroke-width: 1.5; stroke-linecap: square"/>
    <defs>
     <path id="m42c3abdc22" d="M 0 3 
C 0.795609 3 1.55874 2.683901 2.12132 2.12132 
C 2.683901 1.55874 3 0.795609 3 0 
C 3 -0.795609 2.683901 -1.55874 2.12132 -2.12132 
C 1.55874 -2.683901 0.795609 -3 0 -3 
C -0.795609 -3 -1.55874 -2.683901 -2.12132 -2.12132 
C -2.683901 -1.55874 -3 -0.795609 -3 0 
C -3 0.795609 -2.683901 1.55874 -2.12132 2.12132 
C -1.55874 2.683901 -0.795609 3 0 3 
z
" style="stroke: #1f77b4"/>
    </defs>
    <g clip-path="url(#p6dbf77de40)">
     <use xlink:href="#m42c3abdc22" x="89.334597" y="231.526348" style="fill: #1f77b4; stroke: #1f77b4"/>
     <use xlink:href="#m42c3abdc22" x="98.149763" y="202.026753" style="fill: #1f77b4; stroke: #1f77b4"/>
     <use xlink:href="#m42c3abdc22" x="102.557346" y="240.376227" style="fill: #1f77b4; stroke: #1f77b4"/>
     <use xlink:href="#m42c3abdc22" x="107.015301" y="171.501085" style="fill: #1f77b4; stroke: #1f77b4"/>
     <use xlink:href="#m42c3abdc22" x="111.44807" y="143.540599" style="fill: #1f77b4; stroke: #1f77b4"/>
     <use xlink:href="#m42c3abdc22" x="115.931212" y="157.649101" style="fill: #1f77b4; stroke: #1f77b4"/>
     <use xlink:href="#m42c3abdc22" x="120.338795" y="145.336227" style="fill: #1f77b4; stroke: #1f77b4"/>
     <use xlink:href="#m42c3abdc22" x="124.771564" y="106.730235" style="fill: #1f77b4; stroke: #1f77b4"/>
     <use xlink:href="#m42c3abdc22" x="129.204333" y="102.112907" style="fill: #1f77b4; stroke: #1f77b4"/>
     <use xlink:href="#m42c3abdc22" x="133.611916" y="94.032583" style="fill: #1f77b4; stroke: #1f77b4"/>
     <use xlink:href="#m42c3abdc22" x="137.994313" y="83.0023" style="fill: #1f77b4; stroke: #1f77b4"/>
     <use xlink:href="#m42c3abdc22" x="142.427082" y="98.77817" style="fill: #1f77b4; stroke: #1f77b4"/>
     <use xlink:href="#m42c3abdc22" x="146.859851" y="92.493474" style="fill: #1f77b4; stroke: #1f77b4"/>
     <use xlink:href="#m42c3abdc22" x="151.317806" y="95.315174" style="fill: #1f77b4; stroke: #1f77b4"/>
     <use xlink:href="#m42c3abdc22" x="155.725389" y="80.821895" style="fill: #1f77b4; stroke: #1f77b4"/>
     <use xlink:href="#m42c3abdc22" x="160.158158" y="89.543514" style="fill: #1f77b4; stroke: #1f77b4"/>
     <use xlink:href="#m42c3abdc22" x="164.616114" y="93.776065" style="fill: #1f77b4; stroke: #1f77b4"/>
     <use xlink:href="#m42c3abdc22" x="168.99851" y="97.495579" style="fill: #1f77b4; stroke: #1f77b4"/>
     <use xlink:href="#m42c3abdc22" x="173.380907" y="131.740761" style="fill: #1f77b4; stroke: #1f77b4"/>
     <use xlink:href="#m42c3abdc22" x="177.838863" y="224.08732" style="fill: #1f77b4; stroke: #1f77b4"/>
     <use xlink:href="#m42c3abdc22" x="182.296818" y="120.45396" style="fill: #1f77b4; stroke: #1f77b4"/>
     <use xlink:href="#m42c3abdc22" x="186.729587" y="128.406024" style="fill: #1f77b4; stroke: #1f77b4"/>
     <use xlink:href="#m42c3abdc22" x="191.162356" y="146.105781" style="fill: #1f77b4; stroke: #1f77b4"/>
     <use xlink:href="#m42c3abdc22" x="195.569939" y="128.790802" style="fill: #1f77b4; stroke: #1f77b4"/>
     <use xlink:href="#m42c3abdc22" x="199.952336" y="129.432097" style="fill: #1f77b4; stroke: #1f77b4"/>
     <use xlink:href="#m42c3abdc22" x="204.385105" y="134.562462" style="fill: #1f77b4; stroke: #1f77b4"/>
     <use xlink:href="#m42c3abdc22" x="208.792688" y="125.456065" style="fill: #1f77b4; stroke: #1f77b4"/>
     <use xlink:href="#m42c3abdc22" x="213.250643" y="150.466591" style="fill: #1f77b4; stroke: #1f77b4"/>
     <use xlink:href="#m42c3abdc22" x="217.683412" y="135.588534" style="fill: #1f77b4; stroke: #1f77b4"/>
     <use xlink:href="#m42c3abdc22" x="222.090995" y="124.045215" style="fill: #1f77b4; stroke: #1f77b4"/>
     <use xlink:href="#m42c3abdc22" x="226.523764" y="129.816874" style="fill: #1f77b4; stroke: #1f77b4"/>
     <use xlink:href="#m42c3abdc22" x="230.956534" y="134.562462" style="fill: #1f77b4; stroke: #1f77b4"/>
     <use xlink:href="#m42c3abdc22" x="235.364116" y="124.814769" style="fill: #1f77b4; stroke: #1f77b4"/>
     <use xlink:href="#m42c3abdc22" x="239.796886" y="101.471611" style="fill: #1f77b4; stroke: #1f77b4"/>
     <use xlink:href="#m42c3abdc22" x="244.229655" y="134.305943" style="fill: #1f77b4; stroke: #1f77b4"/>
     <use xlink:href="#m42c3abdc22" x="248.637238" y="106.473717" style="fill: #1f77b4; stroke: #1f77b4"/>
     <use xlink:href="#m42c3abdc22" x="253.044821" y="109.167158" style="fill: #1f77b4; stroke: #1f77b4"/>
     <use xlink:href="#m42c3abdc22" x="257.502776" y="75.948049" style="fill: #1f77b4; stroke: #1f77b4"/>
     <use xlink:href="#m42c3abdc22" x="261.960731" y="60.172178" style="fill: #1f77b4; stroke: #1f77b4"/>
     <use xlink:href="#m42c3abdc22" x="266.3935" y="98.393393" style="fill: #1f77b4; stroke: #1f77b4"/>
     <use xlink:href="#m42c3abdc22" x="270.826269" y="64.532988" style="fill: #1f77b4; stroke: #1f77b4"/>
     <use xlink:href="#m42c3abdc22" x="275.259039" y="91.852178" style="fill: #1f77b4; stroke: #1f77b4"/>
     <use xlink:href="#m42c3abdc22" x="279.74218" y="117.247482" style="fill: #1f77b4; stroke: #1f77b4"/>
     <use xlink:href="#m42c3abdc22" x="284.124577" y="92.108696" style="fill: #1f77b4; stroke: #1f77b4"/>
     <use xlink:href="#m42c3abdc22" x="288.607718" y="72.228534" style="fill: #1f77b4; stroke: #1f77b4"/>
     <use xlink:href="#m42c3abdc22" x="293.015301" y="94.160842" style="fill: #1f77b4; stroke: #1f77b4"/>
     <use xlink:href="#m42c3abdc22" x="297.397698" y="99.291206" style="fill: #1f77b4; stroke: #1f77b4"/>
     <use xlink:href="#m42c3abdc22" x="301.780095" y="71.843757" style="fill: #1f77b4; stroke: #1f77b4"/>
     <use xlink:href="#m42c3abdc22" x="306.23805" y="95.186915" style="fill: #1f77b4; stroke: #1f77b4"/>
     <use xlink:href="#m42c3abdc22" x="310.670819" y="54.144" style="fill: #1f77b4; stroke: #1f77b4"/>
     <use xlink:href="#m42c3abdc22" x="315.103588" y="84.797927" style="fill: #1f77b4; stroke: #1f77b4"/>
     <use xlink:href="#m42c3abdc22" x="319.536357" y="63.506915" style="fill: #1f77b4; stroke: #1f77b4"/>
     <use xlink:href="#m42c3abdc22" x="323.94394" y="90.056551" style="fill: #1f77b4; stroke: #1f77b4"/>
     <use xlink:href="#m42c3abdc22" x="328.37671" y="75.435012" style="fill: #1f77b4; stroke: #1f77b4"/>
     <use xlink:href="#m42c3abdc22" x="332.859851" y="86.850073" style="fill: #1f77b4; stroke: #1f77b4"/>
     <use xlink:href="#m42c3abdc22" x="337.267434" y="103.267239" style="fill: #1f77b4; stroke: #1f77b4"/>
     <use xlink:href="#m42c3abdc22" x="341.700203" y="103.395498" style="fill: #1f77b4; stroke: #1f77b4"/>
     <use xlink:href="#m42c3abdc22" x="346.0826" y="99.291206" style="fill: #1f77b4; stroke: #1f77b4"/>
     <use xlink:href="#m42c3abdc22" x="350.515369" y="106.088939" style="fill: #1f77b4; stroke: #1f77b4"/>
     <use xlink:href="#m42c3abdc22" x="354.922952" y="96.212988" style="fill: #1f77b4; stroke: #1f77b4"/>
     <use xlink:href="#m42c3abdc22" x="359.355721" y="86.593555" style="fill: #1f77b4; stroke: #1f77b4"/>
     <use xlink:href="#m42c3abdc22" x="363.78849" y="107.884567" style="fill: #1f77b4; stroke: #1f77b4"/>
     <use xlink:href="#m42c3abdc22" x="368.196073" y="235.758899" style="fill: #1f77b4; stroke: #1f77b4"/>
     <use xlink:href="#m42c3abdc22" x="372.628842" y="86.208777" style="fill: #1f77b4; stroke: #1f77b4"/>
     <use xlink:href="#m42c3abdc22" x="377.011239" y="121.223514" style="fill: #1f77b4; stroke: #1f77b4"/>
     <use xlink:href="#m42c3abdc22" x="381.469194" y="118.786591" style="fill: #1f77b4; stroke: #1f77b4"/>
     <use xlink:href="#m42c3abdc22" x="385.92715" y="134.049425" style="fill: #1f77b4; stroke: #1f77b4"/>
     <use xlink:href="#m42c3abdc22" x="390.359919" y="170.090235" style="fill: #1f77b4; stroke: #1f77b4"/>
     <use xlink:href="#m42c3abdc22" x="394.792688" y="201.513717" style="fill: #1f77b4; stroke: #1f77b4"/>
     <use xlink:href="#m42c3abdc22" x="399.225457" y="221.906915" style="fill: #1f77b4; stroke: #1f77b4"/>
    </g>
   </g>
   <g id="line2d_36">
    <path d="M 365.878944 307.584 
L 365.878944 41.472 
" clip-path="url(#p6dbf77de40)" style="fill: none; stroke-dasharray: 5.55,2.4; stroke-dashoffset: 0; stroke: #ff0000; stroke-width: 1.5"/>
   </g>
   <g id="patch_3">
    <path d="M 57.6 307.584 
L 57.6 41.472 
" style="fill: none; stroke: #000000; stroke-width: 0.8; stroke-linejoin: miter; stroke-linecap: square"/>
   </g>
   <g id="patch_4">
    <path d="M 57.6 307.584 
L 414.72 307.584 
" style="fill: none; stroke: #000000; stroke-width: 0.8; stroke-linejoin: miter; stroke-linecap: square"/>
   </g>
   <g id="text_20">
    <!-- $t_{stop}$ -->
    <g style="fill: #ff0000" transform="translate(372.044523 70.304648)scale(0.14 -0.14)">
     <defs>
      <path id="DejaVuSans-Oblique-74" d="M 2706 3500 
L 2619 3053 
L 1472 3053 
L 1100 1153 
Q 1081 1047 1072 975 
Q 1063 903 1063 863 
Q 1063 663 1183 572 
Q 1303 481 1569 481 
L 2150 481 
L 2053 0 
L 1503 0 
Q 991 0 739 200 
Q 488 400 488 806 
Q 488 878 497 964 
Q 506 1050 525 1153 
L 897 3053 
L 409 3053 
L 500 3500 
L 978 3500 
L 1172 4494 
L 1747 4494 
L 1556 3500 
L 2706 3500 
z
" transform="scale(0.015625)"/>
      <path id="DejaVuSans-Oblique-73" d="M 3200 3397 
L 3091 2853 
Q 2863 2978 2609 3040 
Q 2356 3103 2088 3103 
Q 1634 3103 1373 2948 
Q 1113 2794 1113 2528 
Q 1113 2219 1719 2053 
Q 1766 2041 1788 2034 
L 1972 1978 
Q 2547 1819 2739 1644 
Q 2931 1469 2931 1166 
Q 2931 609 2489 259 
Q 2047 -91 1331 -91 
Q 1053 -91 747 -37 
Q 441 16 72 128 
L 184 722 
Q 500 559 806 475 
Q 1113 391 1394 391 
Q 1816 391 2080 572 
Q 2344 753 2344 1031 
Q 2344 1331 1650 1516 
L 1591 1531 
L 1394 1581 
Q 956 1697 753 1886 
Q 550 2075 550 2369 
Q 550 2928 970 3256 
Q 1391 3584 2113 3584 
Q 2397 3584 2667 3537 
Q 2938 3491 3200 3397 
z
" transform="scale(0.015625)"/>
      <path id="DejaVuSans-Oblique-6f" d="M 1625 -91 
Q 1009 -91 651 289 
Q 294 669 294 1325 
Q 294 1706 417 2101 
Q 541 2497 738 2766 
Q 1047 3184 1428 3384 
Q 1809 3584 2291 3584 
Q 2888 3584 3255 3212 
Q 3622 2841 3622 2241 
Q 3622 1825 3500 1412 
Q 3378 1000 3181 728 
Q 2875 309 2494 109 
Q 2113 -91 1625 -91 
z
M 891 1344 
Q 891 869 1089 633 
Q 1288 397 1691 397 
Q 2269 397 2648 901 
Q 3028 1406 3028 2181 
Q 3028 2634 2825 2865 
Q 2622 3097 2228 3097 
Q 1903 3097 1650 2945 
Q 1397 2794 1197 2484 
Q 1050 2253 970 1956 
Q 891 1659 891 1344 
z
" transform="scale(0.015625)"/>
      <path id="DejaVuSans-Oblique-70" d="M 3175 2156 
Q 3175 2616 2975 2859 
Q 2775 3103 2400 3103 
Q 2144 3103 1911 2972 
Q 1678 2841 1497 2591 
Q 1319 2344 1212 1994 
Q 1106 1644 1106 1300 
Q 1106 863 1306 627 
Q 1506 391 1875 391 
Q 2147 391 2380 519 
Q 2613 647 2778 891 
Q 2956 1147 3065 1494 
Q 3175 1841 3175 2156 
z
M 1394 2969 
Q 1625 3272 1939 3428 
Q 2253 3584 2638 3584 
Q 3175 3584 3472 3232 
Q 3769 2881 3769 2247 
Q 3769 1728 3584 1258 
Q 3400 788 3053 416 
Q 2822 169 2531 39 
Q 2241 -91 1919 -91 
Q 1547 -91 1294 64 
Q 1041 219 916 525 
L 556 -1331 
L -19 -1331 
L 922 3500 
L 1497 3500 
L 1394 2969 
z
" transform="scale(0.015625)"/>
     </defs>
     <use xlink:href="#DejaVuSans-Oblique-74" transform="translate(0 0.78125)"/>
     <use xlink:href="#DejaVuSans-Oblique-73" transform="translate(39.208984 -15.625)scale(0.7)"/>
     <use xlink:href="#DejaVuSans-Oblique-74" transform="translate(75.678711 -15.625)scale(0.7)"/>
     <use xlink:href="#DejaVuSans-Oblique-6f" transform="translate(103.125 -15.625)scale(0.7)"/>
     <use xlink:href="#DejaVuSans-Oblique-70" transform="translate(145.952148 -15.625)scale(0.7)"/>
    </g>
   </g>
  </g>
 </g>
 <defs>
  <clipPath id="p6dbf77de40">
   <rect x="57.6" y="41.472" width="357.12" height="266.112"/>
  </clipPath>
 </defs>
</svg>
